<?xml version="1.0" encoding="UTF-8"?>
<svg width="30px" height="30px" viewBox="0 0 30 30" version="1.1" xmlns="http://www.w3.org/2000/svg" xmlns:xlink="http://www.w3.org/1999/xlink">
    <!-- Generator: Sketch 48.2 (47327) - http://www.bohemiancoding.com/sketch -->
    <title>icon_gumtree</title>
    <desc>Created with Sketch.</desc>
    <defs>
        <path d="M20.5322837,8.12908271 C20.2995595,7.96454917 20.1519172,7.70680082 20.1262675,7.42402836 C19.7527826,3.268149 16.2506582,0 11.9996872,0 C7.74871621,0 4.24721737,3.26752339 3.8737325,7.42340276 C3.84808279,7.70680082 3.70044053,7.96454917 3.46771629,8.12908271 C1.37194693,9.60738211 0,12.047233 0,14.8011365 C0,18.5703933 2.56809947,21.7497067 6.04770221,22.6831061 L6.04770221,22.6837317 C6.64327607,22.8432604 7.26262284,22.9170816 7.48158382,22.7907098 C7.91825457,22.5385919 8.46503141,20.4985012 8.21228788,20.0618304 C8.08591612,19.843495 7.51286396,19.5976331 6.91666449,19.4381044 L6.91666449,19.4374788 C4.87094336,18.8881996 3.36011261,17.0176472 3.36011261,14.8011365 C3.36011261,13.5668222 3.8280635,12.439486 4.59630373,11.5886662 C4.94539009,11.2020436 5.35641113,10.8717254 5.81435237,10.6146026 C6.68769387,10.1228788 7.20381618,9.18322342 7.19943696,8.17975654 L7.19943696,8.16036285 C7.19943696,7.64173813 7.28264213,7.1418815 7.43528921,6.67330501 C8.06276881,4.75270443 9.87201209,3.36011261 11.9996872,3.36011261 C14.1279879,3.36011261 15.93598,4.75270443 16.5634596,6.67330501 C16.7161067,7.1418815 16.7999374,7.64173813 16.7999374,8.16036285 L16.7999374,8.17350051 C16.7949326,9.18322342 17.3123061,10.1228788 18.1856476,10.6146026 C18.6429633,10.8717254 19.0539843,11.2020436 19.4036963,11.5886662 C20.1713109,12.4407372 20.6392618,13.5668222 20.6392618,14.8011365 C20.6392618,17.4518156 18.4790553,19.6082684 15.8264995,19.6007612 C12.7773115,19.5920027 10.3199437,22.1094284 10.3199437,25.1586164 L10.3199437,28.3204129 C10.3199437,28.9372573 10.4087793,29.5547272 10.5877017,29.733024 C10.9436697,30.088992 13.0557047,30.088992 13.4122983,29.733024 C13.5899695,29.5547272 13.6800563,28.9372573 13.6800563,28.3204129 L13.6794307,28.3204129 L13.6794307,25.1048145 C13.6794307,23.9142924 14.6541199,22.9608738 15.8440164,22.9608738 C20.3414749,22.9583713 23.9993744,19.298595 23.9993744,14.8011365 C23.9993744,12.047233 22.6280531,9.60738211 20.5322837,8.12908271" id="path-1"></path>
    </defs>
    <g id="Desktop" stroke="none" stroke-width="1" fill="none" fill-rule="evenodd" transform="translate(-497.000000, -1180.000000)">
        <g id="Profile" transform="translate(202.000000, 100.000000)">
            <g id="icon/gumtree" transform="translate(295.000000, 1080.000000)">
                <g id="Group" transform="translate(3.000000, 0.000000)">
                    <mask id="mask-2" fill="white">
                        <use xlink:href="#path-1"></use>
                    </mask>
                    <use id="Mask" fill="#61BC4D" xlink:href="#path-1"></use>
                    <g id="Mixin/Fill/Leafy-Green" mask="url(#mask-2)" fill="#4AD540">
                        <g transform="translate(-3.000000, 0.000000)" id="bg">
                            <rect x="0" y="0" width="30" height="30"></rect>
                        </g>
                    </g>
                </g>
            </g>
        </g>
    </g>
</svg>