<?xml version="1.0" encoding="UTF-8"?>
<svg width="16px" height="16px" viewBox="0 0 16 16" version="1.1" xmlns="http://www.w3.org/2000/svg" xmlns:xlink="http://www.w3.org/1999/xlink">
    <!-- Generator: Sketch 48.2 (47327) - http://www.bohemiancoding.com/sketch -->
    <title>icon_phone</title>
    <desc>Created with Sketch.</desc>
    <defs>
        <path d="M4.98748331,11.0167923 C8.53894997,14.5677257 11.8898833,15.0983923 12.7042833,14.8925257 C13.6354833,14.6551923 14.3416166,13.5671923 14.66375,12.7069257 L14.9282833,11.9997257 C14.9512166,11.9389257 14.9224166,11.8701257 14.86375,11.8429257 L11.2914833,10.2029257 C11.24295,10.1815923 11.1880166,10.190659 11.1512166,10.2279923 L9.94748331,11.3927923 C9.80401664,11.5309257 9.59494997,11.577859 9.40721664,11.5159923 C9.34694997,11.4951923 7.91814997,11.0055923 6.45894997,9.54585898 C4.99868331,8.08612565 4.50694997,6.65572565 4.48668331,6.59545898 C4.42268331,6.40612565 4.47014997,6.19812565 4.60881664,6.05465898 L5.76774997,4.85732565 C5.81094997,4.81412565 5.82054997,4.75812565 5.79921664,4.71172565 L4.15921664,1.13892565 C4.13254997,1.08025898 4.06374997,1.05039232 4.00188331,1.07385898 L3.29468331,1.33892565 C2.43494997,1.66052565 1.34641664,2.36612565 1.10961664,3.29785898 C0.902149972,4.11545898 1.43494997,7.46372565 4.98748331,11.0167923 M12.2728166,16.0023923 C10.4930833,16.0023923 7.28614997,14.8231923 4.23334997,11.7709257 C0.726149972,8.26319232 -0.309583361,4.55065898 0.0760166386,3.03492565 C0.414149972,1.70585898 1.76721664,0.77092565 2.92081664,0.339458984 L3.62801664,0.0749256505 C4.21041664,-0.14267435 4.86854997,0.128792317 5.12881664,0.693592317 L6.76881664,4.26585898 C6.97628331,4.71652565 6.87921664,5.25465898 6.52828331,5.60559232 L5.61894997,6.54479232 C5.82321664,6.98959232 6.30748331,7.88612565 7.21308331,8.79172565 C8.12561664,9.70425898 9.01361664,10.182659 9.45628331,10.384259 L10.40295,9.46799232 C10.7474833,9.12292565 11.2856166,9.02692565 11.7362833,9.23332565 L15.30855,10.8733257 C15.8728166,11.133059 16.1448166,11.7917257 15.9272166,12.3735923 L15.6626833,13.0807923 C15.2306833,14.2343923 14.2962833,15.5879923 12.9672166,15.9255923 C12.77095,15.9757257 12.53735,16.0023923 12.2728166,16.0023923" id="path-1"></path>
    </defs>
    <g id="Desktop" stroke="none" stroke-width="1" fill="none" fill-rule="evenodd" transform="translate(-242.000000, -457.000000)">
        <g id="Profile" transform="translate(202.000000, 100.000000)">
            <g id="details" transform="translate(40.000000, 308.000000)">
                <g id="Phone-Icon" transform="translate(0.000000, 49.000000)">
                    <g id="Group">
                        <mask id="mask-2" fill="white">
                            <use xlink:href="#path-1"></use>
                        </mask>
                        <g id="Mask"></g>
                        <g id="Mixin/Fill/Watermelon" mask="url(#mask-2)" fill="#EE4055">
                            <rect id="bg" x="0" y="0" width="16" height="16"></rect>
                        </g>
                    </g>
                </g>
            </g>
        </g>
    </g>
</svg>