<?xml version="1.0" encoding="UTF-8"?>
<svg width="50px" height="50px" viewBox="0 0 50 50" version="1.1" xmlns="http://www.w3.org/2000/svg" xmlns:xlink="http://www.w3.org/1999/xlink">
    <!-- Generator: Sketch 48.2 (47327) - http://www.bohemiancoding.com/sketch -->
    <title>icon_arrow_right</title>
    <desc>Created with Sketch.</desc>
    <defs>
        <path d="M19.9961667,0.4955 L35.7211667,16.4288333 L19.9978333,32.3805 C19.3511667,33.0338333 18.2945,33.0421667 17.6395,32.3971667 C16.9845,31.7505 16.9761667,30.6955 17.6228333,30.0405 L29.3861667,18.1038333 L1.66616667,18.1038333 C0.7445,18.1038333 -0.0005,17.3588333 -0.0005,16.4371667 C-0.0005,15.5171667 0.7445,14.7705 1.66616667,14.7705 L29.4028333,14.7705 L17.6228333,2.83716667 C16.9778333,2.18383333 16.9828333,1.12716667 17.6395,0.4805 C18.2945,-0.1645 19.3495,-0.1595 19.9961667,0.4955" id="path-1"></path>
    </defs>
    <g id="Desktop" stroke="none" stroke-width="1" fill="none" fill-rule="evenodd" transform="translate(-887.000000, -645.000000)">
        <g id="right-btn" transform="translate(872.000000, 630.000000)">
            <g id="icon/arrow/left" transform="translate(15.000000, 15.000000)">
                <g id="Group" transform="translate(6.666667, 8.333333)">
                    <mask id="mask-2" fill="white">
                        <use xlink:href="#path-1"></use>
                    </mask>
                    <use id="Mask" fill="#000000" xlink:href="#path-1"></use>
                    <g id="Mixin/Fill/White" mask="url(#mask-2)" fill="#FFFFFF">
                        <g transform="translate(-6.666667, -8.333333)" id="bg">
                            <rect x="0" y="0" width="50" height="50"></rect>
                        </g>
                    </g>
                </g>
            </g>
        </g>
    </g>
</svg>