<?xml version="1.0" encoding="UTF-8"?>
<svg width="16px" height="16px" viewBox="0 0 16 16" version="1.1" xmlns="http://www.w3.org/2000/svg" xmlns:xlink="http://www.w3.org/1999/xlink">
    <!-- Generator: Sketch 48.2 (47327) - http://www.bohemiancoding.com/sketch -->
    <title>icon_email</title>
    <desc>Created with Sketch.</desc>
    <defs>
        <path d="M1.07568,1.28954667 C1.09008,1.22234667 1.14714667,1.06661333 1.35301333,1.06661333 L14.6490133,1.06661333 C14.85488,1.06661333 14.9114133,1.22234667 14.9263467,1.28954667 C14.94128,1.35621333 14.9551467,1.52154667 14.73968,1.62234667 L8.12048,5.19888 C8.04848,5.23248 7.96528,5.23408 7.89221333,5.20368 L1.23301333,1.60794667 C1.04634667,1.52154667 1.06074667,1.35621333 1.07568,1.28954667 M0.755146667,2.56101333 C0.19568,2.30234667 -0.106186667,1.69328 0.03408,1.05968 C0.173813333,0.42608 0.703946667,-5.33333334e-05 1.35301333,-5.33333334e-05 L14.6490133,-5.33333334e-05 C15.29808,-5.33333334e-05 15.8282133,0.42608 15.9679467,1.05968 C16.1082133,1.69328 15.8063467,2.30234667 15.21808,2.57541333 L8.59781333,6.15194667 C8.39888,6.24474667 8.19354667,6.29008 7.99248,6.29008 C7.79888,6.29008 7.60954667,6.24848 7.43301333,6.16688 L7.40368,6.15194667 L0.755146667,2.56101333 Z M15.46736,3.52234667 C15.7622933,3.52234667 16.0006933,3.76128 16.0006933,4.05568 L16.0006933,10.4258133 C16.0006933,11.1319467 15.4268267,11.7063467 14.7212267,11.7063467 L1.28069333,11.7063467 C0.575093333,11.7063467 0.000693333333,11.1319467 0.000693333333,10.4258133 L0.000693333333,4.05568 C0.000693333333,3.76128 0.239626667,3.52234667 0.534026667,3.52234667 C0.82896,3.52234667 1.06736,3.76128 1.06736,4.05568 L1.06736,9.88554667 L4.58149333,6.37141333 C4.78949333,6.16288 5.12709333,6.16288 5.33562667,6.37141333 C5.54416,6.57941333 5.54416,6.91701333 5.33562667,7.12554667 L1.82202667,10.63968 L14.1798933,10.63968 L10.6076267,7.06688 C10.3990933,6.85888 10.3990933,6.52128 10.6076267,6.31274667 C10.8156267,6.10474667 11.1532267,6.10474667 11.36176,6.31274667 L14.9340267,9.88554667 L14.9340267,4.05568 C14.9340267,3.76128 15.17296,3.52234667 15.46736,3.52234667 Z" id="path-1"></path>
    </defs>
    <g id="Desktop" stroke="none" stroke-width="1" fill="none" fill-rule="evenodd" transform="translate(-512.000000, -457.000000)">
        <g id="Profile" transform="translate(202.000000, 100.000000)">
            <g id="details" transform="translate(40.000000, 308.000000)">
                <g id="Email-Icon" transform="translate(270.000000, 49.000000)">
                    <g id="Group" transform="translate(0.000000, 2.133333)">
                        <mask id="mask-2" fill="white">
                            <use xlink:href="#path-1"></use>
                        </mask>
                        <use id="Mask" fill="#000000" xlink:href="#path-1"></use>
                        <g id="Mixin/Fill/Watermelon" mask="url(#mask-2)" fill="#EE4055">
                            <g transform="translate(0.000000, -2.133333)" id="bg">
                                <rect x="0" y="0" width="16" height="16"></rect>
                            </g>
                        </g>
                    </g>
                </g>
            </g>
        </g>
    </g>
</svg>