<?xml version="1.0" encoding="UTF-8"?>
<svg width="16px" height="16px" viewBox="0 0 16 16" version="1.1" xmlns="http://www.w3.org/2000/svg" xmlns:xlink="http://www.w3.org/1999/xlink">
    <!-- Generator: Sketch 48.2 (47327) - http://www.bohemiancoding.com/sketch -->
    <title>icon_bullet</title>
    <desc>Created with Sketch.</desc>
    <defs>
        <path d="M13.6590933,2.33964276 C16.78016,5.45987737 16.78016,10.5363903 13.6590933,13.6560917 C12.1476267,15.1676886 10.1380267,16 7.99989333,16 C5.86229333,16 3.85216,15.1676886 2.34016,13.6560917 C-0.77984,10.5363903 -0.77984,5.45987737 2.34016,2.33964276 C3.84949333,0.83071181 5.85962667,0 7.99989333,0 C10.1396267,0 12.14976,0.83071181 13.6590933,2.33964276 Z M12.90496,12.9019584 C15.6094933,10.1977238 15.6094933,5.79801087 12.90496,3.09377627 C11.5972267,1.7864452 9.85482667,1.06666667 7.99989333,1.06666667 C6.14442667,1.06666667 4.40309333,1.7864452 3.09429333,3.09377627 C0.38976,5.79801087 0.38976,10.1977238 3.09429333,12.9019584 C4.40469333,14.2119553 6.14709333,14.9333333 7.99989333,14.9333333 C9.85269333,14.9333333 11.5950933,14.2119553 12.90496,12.9019584 Z M8.00016,13.3333333 C5.05464133,13.3333333 2.66682667,10.9455187 2.66682667,8 C2.66682667,5.05448133 5.05464133,2.66666667 8.00016,2.66666667 C10.9456787,2.66666667 13.3334933,5.05448133 13.3334933,8 C13.3334933,10.9455187 10.9456787,13.3333333 8.00016,13.3333333 Z" id="path-1"></path>
    </defs>
    <g id="Desktop" stroke="none" stroke-width="1" fill="none" fill-rule="evenodd" transform="translate(-242.000000, -603.000000)">
        <g id="Profile" transform="translate(202.000000, 100.000000)">
            <g id="work-exp" transform="translate(40.000000, 452.000000)">
                <g id="Profile/Work-Experience" transform="translate(0.000000, 48.000000)">
                    <g id="icon/jobs/dot" transform="translate(0.000000, 3.000000)">
                        <g id="Group">
                            <mask id="mask-2" fill="white">
                                <use xlink:href="#path-1"></use>
                            </mask>
                            <g id="Oval-17"></g>
                            <g id="Mixin/Fill/Watermelon" mask="url(#mask-2)" fill="#EE4055">
                                <rect id="bg" x="0" y="0" width="16" height="16"></rect>
                            </g>
                        </g>
                    </g>
                </g>
            </g>
        </g>
    </g>
</svg>