<?xml version="1.0" encoding="UTF-8"?>
<svg width="16px" height="16px" viewBox="0 0 16 16" version="1.1" xmlns="http://www.w3.org/2000/svg" xmlns:xlink="http://www.w3.org/1999/xlink">
    <!-- Generator: Sketch 48.2 (47327) - http://www.bohemiancoding.com/sketch -->
    <title>icon_location</title>
    <desc>Created with Sketch.</desc>
    <defs>
        <path d="M9.39152,10.2951467 C8.65712,11.6274133 6.70992,13.94528 5.86672,14.9255467 C5.02298667,13.94528 3.07738667,11.63008 2.34192,10.2951467 C1.47152,8.71754667 1.06672,7.48021333 1.06672,6.39968 C1.06672,3.75328 3.21978667,1.59968 5.86672,1.59968 C8.51365333,1.59968 10.66672,3.75328 10.66672,6.39968 C10.66672,7.48074667 10.2613867,8.71808 9.39152,10.2951467 M5.86672,0.533013333 C2.63152,0.533013333 5.33333334e-05,3.16501333 5.33333334e-05,6.39968 C5.33333334e-05,7.66688 0.446986667,9.06848 1.40752,10.8103467 C2.41125333,12.6306133 5.34245333,15.9511467 5.46725333,16.0914133 L5.84272,16.5159467 L6.24378667,16.1154133 C6.26938667,16.08928 9.31418667,12.6450133 10.32592,10.8103467 C11.28592,9.06901333 11.7333867,7.66794667 11.7333867,6.39968 C11.7333867,3.16501333 9.10138667,0.533013333 5.86672,0.533013333 M5.86704,3.83477333 C4.83557333,3.83477333 4.00037333,4.67050667 4.00037333,5.70144 C4.00037333,6.73290667 4.83557333,7.56810667 5.86704,7.56810667 C6.89797333,7.56810667 7.73370667,6.73290667 7.73370667,5.70144 C7.73370667,4.67050667 6.89797333,3.83477333 5.86704,3.83477333" id="path-1"></path>
    </defs>
    <g id="Desktop" stroke="none" stroke-width="1" fill="none" fill-rule="evenodd" transform="translate(-242.000000, -495.000000)">
        <g id="Profile" transform="translate(202.000000, 100.000000)">
            <g id="details" transform="translate(40.000000, 308.000000)">
                <g id="Location-Icon" transform="translate(0.000000, 86.000000)">
                    <g id="Group" transform="translate(2.133333, 0.466667)">
                        <mask id="mask-2" fill="white">
                            <use xlink:href="#path-1"></use>
                        </mask>
                        <use id="Mask" fill="#000000" xlink:href="#path-1"></use>
                        <g id="Mixin/Fill/Watermelon" mask="url(#mask-2)" fill="#EE4055">
                            <g transform="translate(-2.133333, 0.533333)" id="bg">
                                <rect x="0" y="0" width="16" height="16"></rect>
                            </g>
                        </g>
                    </g>
                </g>
            </g>
        </g>
    </g>
</svg>