<?xml version="1.0" encoding="UTF-8"?>
<svg width="16px" height="16px" viewBox="0 0 16 16" version="1.1" xmlns="http://www.w3.org/2000/svg" xmlns:xlink="http://www.w3.org/1999/xlink">
    <!-- Generator: Sketch 48.2 (47327) - http://www.bohemiancoding.com/sketch -->
    <title>icon_education</title>
    <desc>Created with Sketch.</desc>
    <defs>
        <path d="M7.99994667,7.81749333 L1.67568,4.47669333 L7.99994667,1.13642667 L14.3242133,4.47669333 L7.99994667,7.81749333 Z M15.71568,4.00576 C15.8906133,4.09749333 15.9999467,4.27882667 15.9999467,4.47669333 C15.9999467,4.67456 15.8906133,4.85589333 15.71568,4.94816 L8.24901333,8.89216 C8.17114667,8.93322667 8.08528,8.95402667 7.99994667,8.95402667 C7.91461333,8.95402667 7.82874667,8.93322667 7.75088,8.89216 L0.284213333,4.94816 C0.10928,4.85589333 -5.33333333e-05,4.67456 -5.33333333e-05,4.47669333 C-5.33333333e-05,4.27882667 0.10928,4.09749333 0.284213333,4.00576 L7.75088,0.06176 C7.90608,-0.0203733333 8.09381333,-0.0203733333 8.24901333,0.06176 L15.71568,4.00576 Z M12.75152,7.88725333 C13.0464533,7.88725333 13.2848533,8.12565333 13.2848533,8.42058667 L13.2848533,9.75125333 C13.2848533,11.4152533 10.9632533,12.71872 8.00005333,12.71872 C5.03632,12.71872 2.71525333,11.4152533 2.71525333,9.75125333 L2.71525333,8.42058667 C2.71525333,8.12565333 2.95365333,7.88725333 3.24858667,7.88725333 C3.54298667,7.88725333 3.78192,8.12565333 3.78192,8.42058667 L3.78192,9.75125333 C3.78192,10.6504533 5.51418667,11.6520533 8.00005333,11.6520533 C10.48592,11.6520533 12.2181867,10.6504533 12.2181867,9.75125333 L12.2181867,8.42058667 C12.2181867,8.12565333 12.4565867,7.88725333 12.75152,7.88725333 Z M1.12074667,6.66485333 C1.41568,6.66485333 1.65408,6.90325333 1.65408,7.19818667 L1.65408,11.0541867 C1.65408,11.3485867 1.41568,11.58752 1.12074667,11.58752 C0.825813333,11.58752 0.587413333,11.3485867 0.587413333,11.0541867 L0.587413333,7.19818667 C0.587413333,6.90325333 0.825813333,6.66485333 1.12074667,6.66485333 Z" id="path-1"></path>
    </defs>
    <g id="Desktop" stroke="none" stroke-width="1" fill="none" fill-rule="evenodd" transform="translate(-512.000000, -495.000000)">
        <g id="Profile" transform="translate(202.000000, 100.000000)">
            <g id="details" transform="translate(40.000000, 308.000000)">
                <g id="Education-Icon" transform="translate(270.000000, 87.000000)">
                    <g id="Group" transform="translate(0.000000, 1.600000)">
                        <mask id="mask-2" fill="white">
                            <use xlink:href="#path-1"></use>
                        </mask>
                        <use id="Mask" fill="#000000" xlink:href="#path-1"></use>
                        <g id="Mixin/Fill/Watermelon" mask="url(#mask-2)" fill="#EE4055">
                            <g transform="translate(0.000000, -1.600000)" id="bg">
                                <rect x="0" y="0" width="16" height="16"></rect>
                            </g>
                        </g>
                    </g>
                </g>
            </g>
        </g>
    </g>
</svg>